Coordinates
version=1
nRows=17
nColumns=24
inDegrees=yes

Units are S.I. units (second, meters, Newtons, ...)
Angles are in degrees.

endheader
time	pelvis_tilt	pelvis_list	pelvis_rotation	pelvis_tx	pelvis_ty	pelvis_tz	hip_flexion_r	hip_adduction_r	hip_rotation_r	knee_angle_r	ankle_angle_r	subtalar_angle_r	mtp_angle_r	hip_flexion_l	hip_adduction_l	hip_rotation_l	knee_angle_l	ankle_angle_l	subtalar_angle_l	mtp_angle_l	lumbar_extension	lumbar_bending	lumbar_rotation
      5.68500000	     -3.04743331	      4.24467666	     -0.31078510	      1.37336324	      1.03023461	     -0.23202333	     27.73819646	     -5.79180791	     -9.41112152	    -47.93479454	     19.31365059	      3.79898710	      0.00000000	     -7.41264006	      8.95227382	      8.20006054	      2.70123062	      6.07808054	    -17.07510549	      0.00000000	     -8.07663887	     -3.12535815	     -6.10186900
      5.69000000	     -3.16036797	      4.22862372	     -0.23990741	      1.37953588	      1.02958172	     -0.23185720	     28.02648083	     -5.61770693	     -9.39968917	    -46.36773024	     19.56047992	      4.20020642	      0.00000000	     -7.82445352	      8.91116070	      8.21328374	      2.98523780	      6.09552676	    -17.05633694	      0.00000000	     -7.95177100	     -3.10737895	     -6.23821234
      5.69500000	     -3.13458709	      4.09554984	     -0.08636460	      1.38578482	      1.02915855	     -0.23168351	     28.07583584	     -5.35367643	     -9.52154905	    -44.66310974	     19.70508645	      4.49419366	      0.00000000	     -8.40183035	      8.71013690	      8.44511099	      3.28284313	      6.09406439	    -17.12815819	      0.00000000	     -8.00539254	     -2.96427729	     -6.47449943
      5.70000000	     -3.15196036	      4.02484749	     -0.00013085	      1.39202698	      1.02858663	     -0.23144838	     28.17185691	     -5.12402152	     -9.52331998	    -42.94078581	     19.87151365	      4.91649455	      0.00000000	     -8.90324182	      8.59092647	      8.56717502	      3.53419378	      6.11326253	    -17.17989910	      0.00000000	     -8.00141055	     -2.89328292	     -6.62957366
      5.70500000	     -3.20081162	      3.96667794	      0.08456340	      1.39828786	      1.02794203	     -0.23119738	     28.27151588	     -4.90222461	     -9.49130900	    -41.16293664	     19.99390009	      5.35392049	      0.00000000	     -9.34620912	      8.48512433	      8.66616588	      3.73470386	      6.17625810	    -17.17699397	      0.00000000	     -7.95541386	     -2.83675269	     -6.78324719
      5.71000000	     -3.27842826	      3.92736665	      0.15260104	      1.40455937	      1.02721695	     -0.23089843	     28.37765504	     -4.69066759	     -9.41240198	    -39.34120404	     20.08783197	      5.83464786	      0.00000000	     -9.73940183	      8.40013680	      8.73834675	      3.90061279	      6.25477850	    -17.14522466	      0.00000000	     -7.87834995	     -2.81240396	     -6.90482549
      5.71500000	     -3.31225357	      3.85181531	      0.23144428	      1.41084758	      1.02654860	     -0.23054310	     28.38730529	     -4.43675201	     -9.31448541	    -37.43651172	     20.10735386	      6.27147818	      0.00000000	    -10.16011818	      8.26753991	      8.83103958	      4.02800106	      6.36730308	    -17.10394354	      0.00000000	     -7.86420431	     -2.75482612	     -7.06004641
      5.72000000	     -3.40231516	      3.83653768	      0.28498439	      1.41709229	      1.02572628	     -0.23020852	     28.45135290	     -4.23316774	     -9.09993936	    -35.52178286	     20.11402711	      6.75942553	      0.00000000	    -10.48667722	      8.21103407	      8.90760184	      4.09330127	      6.51721019	    -17.08247484	      0.00000000	     -7.78388369	     -2.75394667	     -7.17862529
      5.72500000	     -3.43391439	      3.75765255	      0.35580082	      1.42348572	      1.02502759	     -0.22981045	     28.38551865	     -3.96606354	     -8.91368257	    -33.50842221	     19.99497101	      7.10305692	      0.00000000	    -10.88713922	      8.06955245	      8.99575964	      4.16771722	      6.65829547	    -16.98186191	      0.00000000	     -7.75456721	     -2.68883777	     -7.30800410
      5.73000000	     -3.32797790	      3.69966414	      0.40821649	      1.42981021	      1.02446811	     -0.22936823	     28.14755262	     -3.70700896	     -8.62783977	    -31.45433714	     19.86262730	      7.39366795	      0.00000000	    -11.39970155	      7.95574255	      9.03909768	      4.18599715	      6.83745679	    -16.87025733	      0.00000000	     -7.92151223	     -2.65133865	     -7.45293089
      5.73500000	     -3.44835306	      3.68809659	      0.46854666	      1.43617786	      1.02354014	     -0.22895716	     28.14181574	     -3.49789354	     -8.25894780	    -29.40841506	     19.69899321	      7.62225647	      0.00000000	    -11.65601497	      7.89105922	      9.14755209	      4.16443524	      7.02294254	    -16.80997886	      0.00000000	     -7.79561726	     -2.66738004	     -7.56152097
      5.74000000	     -3.36735775	      3.61145402	      0.48540843	      1.44265691	      1.02291428	     -0.22845303	     27.86868110	     -3.20337223	     -7.82167121	    -27.29193042	     19.43508209	      7.70060315	      0.00000000	    -12.12797517	      7.76066189	      9.13170422	      4.14434996	      7.22735430	    -16.61446615	      0.00000000	     -7.90810013	     -2.60692263	     -7.64070060
      5.74500000	     -3.47097550	      3.64378003	      0.58038343	      1.44900356	      1.02198994	     -0.22804570	     27.79379529	     -3.04510796	     -7.28812837	    -25.20679753	     19.16006278	      7.58874228	      0.00000000	    -12.35797215	      7.73252022	      9.28439357	      4.03424191	      7.42295587	    -16.52560334	      0.00000000	     -7.82046724	     -2.67577479	     -7.80348489
      5.75000000	     -3.41967113	      3.55731217	      0.57114963	      1.45563494	      1.02128389	     -0.22749083	     27.49554359	     -2.72319602	     -6.62686549	    -23.05762071	     18.76858106	      7.26621801	      0.00000000	    -12.78566628	      7.59641657	      9.22236718	      3.97900151	      7.63221051	    -16.29952975	      0.00000000	     -7.87095873	     -2.60343931	     -7.84229361
      5.75500000	     -3.39741062	      3.53136750	      0.61613778	      1.46216352	      1.02051794	     -0.22701865	     27.22074781	     -2.48978744	     -5.85236785	    -20.93879885	     18.34353204	      6.73240710	      0.00000000	    -13.14108800	      7.51354779	      9.26275422	      3.84029770	      7.87788691	    -16.07446260	      0.00000000	     -7.91808301	     -2.59713866	     -7.94178974
      5.76000000	     -3.28345720	      3.51782588	      0.63276090	      1.46869890	      1.01985203	     -0.22650154	     26.83369959	     -2.26261625	     -4.91921386	    -18.83829949	     17.85828084	      5.95325750	      0.00000000	    -13.57553708	      7.44671612	      9.25491004	      3.66338065	      8.17201812	    -15.75373495	      0.00000000	     -8.08427845	     -2.60811677	     -7.99385628
      5.76500000	     -3.30683065	      3.49310623	      0.70057346	      1.47535545	      1.01901100	     -0.22609481	     26.56470878	     -2.05906153	     -3.94360278	    -16.76154701	     17.27413901	      4.89096232	      0.00000000	    -13.85864128	      7.36612926	      9.29247261	      3.46605354	      8.41116746	    -15.51756633	      0.00000000	     -8.06044623	     -2.59173704	     -8.12065636
